# xmcd
#
# Track frame offsets:
#	182
#	15412
#	32872
#	48670
#	63647
#	79970
#	93755
#	111880
#	124457
#	135715
#	149395
#	171622
#	182052
#	196132
#
# Disc length: 2746 seconds
#
# Revision: 1
# Processed by: cddbd v1.5.2PL0 Copyright (c) Steve Scherf et al.
# Submitted via: audiograbber 1.83.01
#
DISCID=ce0ab80e
DTITLE=Various Artist - Stars and Trucks Vol 6
DYEAR=1900
DGENRE=Country
TTITLE0=Western Union - Transit Cowboy
TTITLE1=Larry and Liane - ...eigentlich brauch´ ich nur dich
TTITLE2=Oliver Freytag - Hey, Driver
TTITLE3=Heidi Gehlert - Country Welt (If it Country, it ain´t Music)
TTITLE4=Sammy´s Saloon - Country Music in Texas
TTITLE5=Tennessee - Tausche Ufo gegen 30-Tonner Diesel
TTITLE6=Nancy Wood - König der Nacht
TTITLE7=Ralf Paulsen - Ich fahr ´nen Supertruck
TTITLE8=Kactus - Bärenstarke Cowboys
TTITLE9=Hank Stone - Die Frau mit dem Gurt
TTITLE10=Gunter Gabriel - Dosenbier und Country-Music
TTITLE11=Jonny Hill - König der Landstraße (King of the road)
TTITLE12=Peter Held - Der Spieler (Counterfeit Cowboy)
TTITLE13=Freddy Quinn - Oh, wie schade Clementine
EXTD=
EXTT0=
EXTT1=
EXTT2=
EXTT3=
EXTT4=
EXTT5=
EXTT6=
EXTT7=
EXTT8=
EXTT9=
EXTT10=
EXTT11=
EXTT12=
EXTT13=
PLAYORDER=
